<svg xmlns="http://www.w3.org/2000/svg" viewBox="0 0 816.47913 156.86" role="img" aria-labelledby="title desc">
  <title id="title">AsMade</title>
  <desc id="desc">AsMade wordmark, Onest Regular 400 with native spacing.</desc>
  <metadata>Typeface foundation: Onest Regular 400. Native spacing. Source font licensed under SIL Open Font License 1.1. Wordmark converted to outlines.</metadata>
  <path fill="#111214" d="M 0,155.54 57.86,0 h 27.5 L 143,155.54 H 122.32 L 110,122.1 H 33 l -12.32,33.44 z m 39.38,-50.82 h 64.24 l -32.12,-88 z m 162.80002,52.14 q -7.92,0 -16.06,-1.54 -7.92,-1.54 -14.96,-5.28 -6.82,-3.74 -11.44,-10.12 -4.62,-6.38 -5.94,-15.84 h 18.92 q 2.2,5.94 7.04,9.68 5.06,3.52 11.22,5.06 6.38,1.54 12.1,1.54 3.52,0 8.14,-0.44 4.62,-0.44 8.8,-1.98 4.4,-1.76 7.04,-5.06 2.86,-3.3 2.86,-9.24 0,-4.4 -1.98,-7.26 -1.98,-2.86 -5.5,-4.62 -3.52,-1.98 -8.58,-2.86 -10.34,-2.2 -22.22,-4.18 -11.66,-1.98 -20.68,-7.48 -3.08,-1.98 -5.72,-4.4 -2.42,-2.64 -4.18,-5.72 -1.76,-3.3 -2.86,-7.04 -0.88,-3.96 -0.88,-8.58 0,-8.58 3.3,-14.74 3.52,-6.38 9.68,-10.34 6.16,-4.18 14.08,-6.16 8.14,-1.98 17.38,-1.98 11.44,0 20.46,3.74 9.24,3.52 15.18,10.56 5.94,6.82 7.04,16.94 h -17.38 q -1.54,-6.38 -8.36,-10.34 -6.82,-4.18 -17.38,-4.18 -3.52,0 -7.92,0.66 -4.4,0.44 -8.36,2.2 -3.96,1.54 -6.6,4.84 -2.64,3.08 -2.64,8.36 0,4.84 2.42,8.14 2.64,3.3 7.26,5.28 4.62,1.98 10.56,3.3 7.7,1.54 16.94,3.3 9.24,1.54 14.52,3.3 7.04,2.2 11.66,6.16 4.84,3.96 7.04,9.46 2.42,5.5 2.42,12.76 0,10.34 -4.18,16.94 -3.96,6.6 -10.78,10.34 -6.82,3.74 -15.18,5.28 -8.14,1.54 -16.28,1.54 z m 74.14017,-1.32 V 0 h 29.04 l 46.64,85.58 45.98,-85.58 h 28.38 v 155.54 h -19.14 V 20.24 l -51.26,94.6 h -8.8 l -51.7,-94.6 v 135.3 z m 221.10019,1.32 q -7.92,0 -15.4,-1.98 -7.26,-2.2 -13.2,-6.38 -5.72,-4.4 -9.24,-10.78 -3.3,-6.6 -3.3,-15.18 0,-9.9 3.52,-16.72 3.74,-6.82 9.9,-10.78 6.16,-3.96 14.3,-5.72 8.14,-1.76 16.94,-1.76 h 34.1 q 0,-9.9 -2.86,-17.16 -2.64,-7.26 -8.8,-11.22 -6.16,-4.18 -16.28,-4.18 -6.16,0 -11.44,1.32 -5.28,1.32 -9.02,4.18 -3.74,2.86 -5.5,7.7 h -20.02 q 1.54,-7.92 5.94,-13.42 4.62,-5.72 11,-9.24 6.6,-3.74 14.08,-5.5 7.48,-1.76 14.96,-1.76 25.08,0 35.64,14.74 10.56,14.74 10.56,39.82 v 62.7 h -15.62 l -1.1,-14.74 q -4.84,6.6 -11.66,10.12 -6.82,3.52 -14.08,4.62 -7.04,1.32 -13.42,1.32 z m 1.76,-16.5 q 11,0 18.92,-3.52 8.14,-3.74 12.54,-10.78 4.4,-7.04 4.4,-17.16 v -5.72 h -20.46 q -7.26,0 -14.3,0.22 -7.04,0.22 -12.76,1.76 -5.72,1.54 -9.24,5.28 -3.3,3.74 -3.3,10.78 0,6.6 3.3,10.78 3.52,4.18 9.02,6.38 5.72,1.98 11.88,1.98 z m 129.5801,16.5 q -17.38,0 -28.6,-7.7 -11.22,-7.92 -16.72,-21.12 -5.5,-13.42 -5.5,-30.14 0,-16.72 5.5,-30.14 5.5,-13.64 16.94,-21.56 11.44,-7.92 29.26,-7.92 6.82,0 13.64,1.76 7.04,1.54 13.2,5.06 6.16,3.3 10.56,9.02 V 0 h 18.7 v 155.54 h -17.82 l -0.88,-17.38 q -3.96,6.6 -10.12,10.78 -5.94,3.96 -13.2,5.94 -7.26,1.98 -14.96,1.98 z m 2.64,-16.5 q 11.66,0 19.58,-5.94 7.92,-5.94 12.1,-15.84 4.18,-9.9 4.18,-21.56 0,-12.1 -4.18,-21.56 -3.96,-9.46 -11.88,-14.96 -7.92,-5.5 -20.02,-5.5 -12.54,0 -20.24,5.72 -7.48,5.72 -11,15.62 -3.3,9.68 -3.3,21.78 0,8.8 1.76,16.5 1.98,7.48 5.94,13.42 4.18,5.72 10.78,9.02 6.6,3.3 16.28,3.3 z m 133.98,16.5 q -18.48,0 -30.58,-7.48 -12.1,-7.7 -18.04,-21.12 -5.94,-13.42 -5.94,-30.58 0,-17.38 6.16,-30.58 6.38,-13.42 18.48,-21.12 12.1,-7.7 29.7,-7.7 13.64,0 23.32,5.28 9.9,5.06 16.28,13.64 6.38,8.58 9.24,18.92 2.86,10.12 2.42,20.46 -0.22,1.98 -0.44,3.96 0,1.98 -0.22,3.96 h -86.02 q 0.88,10.12 5.06,18.26 4.18,8.14 11.88,12.98 7.7,4.62 19.14,4.62 5.72,0 11.44,-1.32 5.94,-1.54 10.56,-5.06 4.84,-3.52 6.82,-9.46 h 19.14 q -2.64,11.22 -9.9,18.48 -7.26,7.04 -17.38,10.56 -10.12,3.3 -21.12,3.3 z m -35.2,-68.64 h 67.1 q -0.22,-9.9 -4.4,-17.38 -4.18,-7.48 -11.44,-11.66 -7.04,-4.18 -16.94,-4.18 -10.78,0 -18.26,4.62 -7.26,4.62 -11.22,12.1 -3.96,7.48 -4.84,16.5 z"/>
</svg>
