<svg xmlns="http://www.w3.org/2000/svg" viewBox="0 0 32 32" role="img" aria-labelledby="title desc">
  <title id="title">AsMade favicon</title>
  <desc id="desc">Sixteen equal squares arranged in a four by four grid.</desc>
  <style>
    .grid { fill: #191918; }
    @media (prefers-color-scheme: dark) {
      .grid { fill: #ffffff; }
    }
  </style>
  <g class="grid" fill-opacity="0.72">
    <rect x="2" y="2" width="4" height="4"/>
    <rect x="10" y="2" width="4" height="4"/>
    <rect x="18" y="2" width="4" height="4"/>
    <rect x="26" y="2" width="4" height="4"/>
    <rect x="2" y="10" width="4" height="4"/>
    <rect x="10" y="10" width="4" height="4"/>
    <rect x="18" y="10" width="4" height="4"/>
    <rect x="26" y="10" width="4" height="4"/>
    <rect x="2" y="18" width="4" height="4"/>
    <rect x="10" y="18" width="4" height="4"/>
    <rect x="18" y="18" width="4" height="4"/>
    <rect x="26" y="18" width="4" height="4"/>
    <rect x="2" y="26" width="4" height="4"/>
    <rect x="10" y="26" width="4" height="4"/>
    <rect x="18" y="26" width="4" height="4"/>
    <rect x="26" y="26" width="4" height="4"/>
  </g>
</svg>
